<svg fill="none" height="410" viewBox="0 0 701 410" width="701" xmlns="http://www.w3.org/2000/svg" xmlns:xlink="http://www.w3.org/1999/xlink"><clipPath id="a"><path d="m0 0h701v409.675h-701z"/></clipPath><g clip-path="url(#a)" stroke="#fff7e9" stroke-width="2"><path d="m316.073 368.812c6.975 3.827 14.139 5.835 21.331 5.835 14.485 0 27.633-7.869 39.362-23.194 11.706-15.294 21.499-35.585 29.321-60.834l.401-1.296h-1.357-175.719-.533l-.297.441-21.953 32.633c-16.205 23.97-34.654 41.474-55.33 52.401l-.002.001c-20.694 11.02-43.841 16.497-69.4622 16.497-25.6789 0-44.1291-4.906-55.7312-14.519-11.7347-9.723-17.43881-19.893-17.43881-30.424 0-10.811 3.15251-19.358 9.46421-25.834 6.3287-6.493 14.2032-9.7 23.6116-9.7 9.5305 0 16.39 2.972 20.7265 8.834l.0053.007c4.4931 5.964 6.7495 13.952 6.7495 24.065 0 4.965-1.1673 9.269-3.4712 12.947-2.3061 3.682-5.7862 6.793-10.4955 9.312l-.7114.381.2217.776c.326 1.141 1.1103 2.186 2.2002 3.138 1.0949.956 2.5555 1.87 4.3412 2.741 3.6699 1.791 8.6748 2.645 14.9334 2.645 6.2709 0 12.292-.774 18.0602-2.323 5.8295-1.566 12.5465-4.938 20.1415-10.144l.004-.003c7.567-5.245 15.52-13.123 23.778-23.51 17.763-22.352 39.831-56.479 66.2-102.264 26.429-45.743 52.082-83.838 77.128-114.214 25.028-30.3549 54.881-57.5878 89.648-81.612l1.222-.8444-1.242-.8145c-10.449-6.8519-23.265-12.3138-38.341-16.4873l-.005-.0014c-15.101-4.0952-31.974-6.2228-50.782-6.2228-18.768 0-38.37 3.3271-58.718 10.0529-20.355 6.7283-37.59 15.8516-51.77 27.3835l-.002.0018c-14.071 11.5128-26.011 25.0734-35.733 40.6785-18.844 30.0157-28.293 64.9577-28.293 104.9597 0 27.12 4.583 53.82 13.663 80.096l-15.759 7.534c-19.5975-31.923-29.3864-65.816-29.3864-101.531 0-24.361 4.8035-47.536 14.4124-69.788 9.613-22.178 23.019-41.9067 40.389-59.1084l.002-.0017c17.263-17.1787 39.262-30.9257 65.939-41.1407 26.66-10.20857 55.867-15.3612 87.714-15.3612 23.216 0 39.694 1.61415 49.535 4.78358l.012.00366 19.242 5.93366.005.0015c6.33 1.9156 13.794 5.5142 22.577 10.7503 4.365 2.6276 7.669 4.6184 9.903 5.9735 1.118.6779 1.964 1.195 2.542 1.5527.289.1792.506.3158.655.4115.068.044.117.0764.15.0988l.448.4475.635-.299c17.077-8.031 31.745-13.1678 43.93-15.6053 12.065-2.3294 26.122-3.5946 42.015-3.6256l5.633 10.5524c-27.902.2603-53.126 7.0814-75.729 20.4758l-1.19.7048 1.042.909c21.136 18.4412 36.811 42.0271 47.1 70.7862 10.298 28.785 15.454 60.456 15.454 94.855 0 34.489-4.903 67.191-14.703 98.282-9.804 31.102-22.799 55.629-39.037 73.718-16.227 18.076-33.691 26.963-52.404 26.963h-.009c-18.092.164-35.981-9.113-53.178-27.95zm74.788-313.716-.733.6799-.597-.8028c-30.098 22.3611-54.678 48.4699-73.903 78.1569-16.633 25.545-32.079 52.277-46.251 80.197-14.154 27.884-24.572 47.62-31.174 59.384l-.836 1.489h1.708 170.888.781l.189-.757c8.411-33.645 12.575-67.124 12.575-100.436 0-55.012-10.857-94.4057-32.647-117.911z"/><path d="m538.723 389.516c-17.715 0-31.757-6.002-42.398-17.972-10.582-12-15.939-27.098-15.939-45.28 0-28.327 9.153-52.15 27.614-71.617l.002-.002c18.391-19.484 39.92-29.185 64.627-29.185 12.267 0 22.452 3.417 30.379 10.106l.004.003c8.042 6.716 13.274 15.504 15.772 26.328l1.944.022 7.776-30.525h39.713l-20.855 78.831c-3.408 11.336-5.123 21.601-5.123 30.957 0 4.61.402 8.2 1.263 10.671.858 2.461 2.317 4.146 4.568 4.146 1.885 0 3.985-.811 6.261-2.266 2.289-1.464 4.847-3.638 7.673-6.506 5.623-5.624 10.495-11.347 14.435-17.169l5.517-7.633 10.139 9.393c-5.831 11.093-13.118 21.218-21.944 30.457-17.686 18.363-32.775 27.241-45.307 27.241-7.366 0-12.798-2.823-16.442-8.444-3.692-5.696-5.614-14.367-5.614-26.158 0-3.886.17-6.782.494-8.644l-1.943-.458c-2.658 8.888-7.643 16.791-14.982 23.629l-.006.005c-14.16 13.406-30.026 20.07-47.628 20.07zm14.567-129.754-.003.003c-9.093 8.749-16.123 19.298-21.005 31.718-4.872 12.31-7.274 24.386-7.274 36.137 0 11.753 2.573 21.385 7.815 28.723 5.315 7.442 13.538 11.1 24.378 11.1 10.942 0 20.861-5.003 29.569-14.832l.004-.004c16.442-18.755 24.576-41.031 24.576-66.777 0-12.845-2.278-22.669-6.999-29.304-4.765-6.698-11.919-10.01-21.296-10.01-10.652 0-20.551 4.463-29.765 13.246z"/></g></svg>