<svg fill="none" height="1024" viewBox="0 0 1024 1024" width="1024" xmlns="http://www.w3.org/2000/svg"><g fill="#fff7e9"><path d="m338.979 772.5c-17.196-2.582-41.485-3.012-72.867-1.291-36.54 2.152-62.549 2.582-78.025 1.291-3.439-.43-6.448-2.151-9.028-5.164-2.579-2.582-3.654-5.809-3.224-9.682.43-3.013 1.72-5.81 3.869-8.392-3.009-2.582-4.514-5.809-4.514-9.682 0-42.604-1.504-106.509-4.513-191.716-3.01-85.207-4.514-149.113-4.514-191.716 0-5.595-.43-12.91-1.29-21.948 0-1.291-.215-4.733-.645-10.328-.86-5.594-1.504-9.897-1.934-12.91-1.72-20.656-.645-37.655 3.224-50.995.86-3.443 3.009-6.025 6.448-7.746 3.439-2.152 6.878-2.582 10.318-1.291h.644c.43-3.873.645-6.886.645-9.037 0-1.291.215-2.367.645-3.228 0-2.582.86-4.949 2.579-7.1 5.159-6.886 12.897-10.974 23.215-12.265 29.662-2.152 53.306-3.012 70.932-2.582 18.055.43 42.129 1.506 72.221 3.227 30.522 1.722 53.736 2.583 69.642 2.583.86 0 4.299-.216 10.318-.646 6.448-.43 11.822-.645 16.121-.645 7.308 0 13.326.215 18.055.645 3.009.43 5.804 1.076 8.383 1.937 4.299 1.721 7.738 4.303 10.317 7.746 6.879 10.328 12.252 28.832 16.121 55.513 3.01 20.226 5.374 46.477 7.093 78.752.86 8.607 2.15 35.718 3.87 81.334 1.719 28.833 3.224 48.413 4.513 58.742.86 8.606 2.15 21.086 3.869 37.439 2.15 16.353 3.654 27.111 4.514 32.275 3.009 27.542 6.449 50.135 10.318 67.779 1.289 4.734 4.728 16.353 10.317 34.857 4.299 15.492 7.093 28.403 8.383 38.731.86 7.746 1.29 12.695 1.29 14.846 0 7.747-2.15 13.771-6.449 18.075 2.15 2.582 3.224 5.594 3.224 9.037 0 3.873-1.289 7.1-3.869 9.682-2.579 2.582-5.803 3.873-9.672 3.873-3.439 0-19.775 1.722-49.008 5.165-23.214 3.012-41.484 2.366-54.811-1.937-6.018-1.721-10.962-6.24-14.831-13.556-2.579-4.733-4.944-10.973-7.093-18.719-2.58-9.898-5.589-25.39-9.028-46.477-4.729-28.833-7.523-45.186-8.383-49.059-2.579-13.77-4.944-23.238-7.093-28.402-5.159.43-9.888 1.076-14.186 1.937-8.168 1.291-14.832 2.582-19.99 3.873-.43.43-.86.645-1.29.645-.43 7.316.215 19.15 1.935 35.503 0 2.582.214 7.101.644 13.556.86 6.024 1.505 10.543 1.935 13.555.86 9.898 1.29 17.214 1.29 21.948v15.492c-.86 9.037-4.299 16.353-10.318 21.947h-.645c4.729 3.443 6.664 7.746 5.804 12.91-.43 3.873-2.15 6.886-5.159 9.037-3.009 2.152-6.448 3.013-10.317 2.582zm-7.093-299.515c-6.449-.861-10.318-4.519-11.607-10.974-.86-6.025-1.72-13.771-2.58-23.238-.43-9.898-.86-16.783-1.29-20.657 0-1.721-.644-5.164-1.934-10.328-1.29-6.024-2.149-10.758-2.579-14.201-2.15-14.631-1.075-25.605 3.224-32.921 2.579-4.303 7.093-6.885 13.541-7.746 3.01-.43 6.449-.645 10.318-.645 6.448.43 14.401 1.506 23.859 3.227 8.598 1.722 16.336 3.658 23.214 5.81 3.869 1.291 6.878 2.367 9.027 3.227 4.729 2.152 7.953 4.519 9.673 7.101 6.019 8.607 8.813 21.302 8.383 38.085 0 2.152-.43 7.746-1.29 16.783v12.91c0 .431.43 2.367 1.29 5.81.86 5.164 1.505 9.037 1.934 11.619.86 5.594.86 10.113 0 13.556-1.289 8.606-5.373 14.201-12.251 16.783-6.879 2.582-17.411 3.443-31.597 2.582-1.72 0-6.664-.43-14.832-1.291-5.158-.43-8.812-.646-10.962-.646-3.869 0-7.093-1.291-9.672-3.873-2.58-2.582-3.869-5.809-3.869-9.682 0-.431 0-.861 0-1.291zm9.027-72.943v2.582c1.29 5.595 2.15 9.468 2.58 11.619.429 4.734 1.074 12.265 1.934 22.593.43 9.037 1.075 15.708 1.935 20.011v3.873c3.009 0 6.878.215 11.607.646.43 0 1.719.215 3.869.645h5.158c-3.009-7.316-4.943-14.847-5.803-22.593-.43-8.176-.43-15.707 0-22.593.86-7.315 1.29-10.973 1.29-10.973l-.645-3.228v.646c-3.439-2.152-10.748-3.228-21.925-3.228zm-130.257-153.631c0 1.722-.215 3.873-.644 6.455v30.339c0 22.378.429 52.932 1.289 91.662 0 20.226.215 41.743.645 64.551s.86 42.173 1.29 58.096.645 24.744.645 26.466c0 8.607-.215 29.693-.645 63.26 0 33.566.645 60.893 1.934 81.979 1.29 21.087 4.084 41.313 8.383 60.678 24.074.43 42.559.645 55.456.645 15.906 0 28.588-.43 38.045-1.291 5.159-.43 9.243-1.075 12.252-1.936.86 0 1.72-.215 2.58-.646.429-.43.644-1.506.644-3.227.43 0 .43-1.722 0-5.164 0-3.873 0-6.455 0-7.746 0-3.873-.429-10.328-1.289-19.366-.43-3.012-.86-7.53-1.29-13.555-.43-6.455-.86-10.974-1.29-13.556-2.149-24.96-2.364-41.097-.644-48.413.859-4.734 3.869-8.607 9.027-11.619 3.009-1.722 6.449-3.228 10.318-4.519 6.018-1.721 13.971-3.442 23.859-5.164 19.345-2.582 33.316-3.443 41.914-2.582 12.467 1.291 21.494 11.189 27.083 29.694 3.009 9.037 5.804 23.883 8.383 44.54 3.009 23.238 5.159 37.869 6.448 43.894 2.58 12.05 5.159 19.15 7.738 21.302 1.29.861 4.729 1.721 10.318 2.582 4.728.861 10.102 1.291 16.121 1.291 21.494 0 34.821-1.076 39.979-3.228 0 0 0-.215 0-.645 0-.861-.429-4.734-1.289-11.619-.86-8.177-3.439-19.365-7.738-33.567-5.589-18.935-8.813-30.984-9.673-36.148-4.299-18.935-8.168-42.604-11.607-71.006-.86-5.164-2.149-15.707-3.869-31.63-1.719-16.353-3.224-28.833-4.514-37.439-1.289-11.189-2.579-31.63-3.869-61.324-2.149-45.185-3.654-72.081-4.514-80.688-1.719-31.845-4.084-57.45-7.093-76.816-3.009-21.947-5.803-35.718-8.383-41.312-.43-.43-1.289-.646-2.579-.646-3.439-.43-8.168-.645-14.186-.645-4.299 0-9.673.215-16.121.645-6.449.431-10.103.646-10.963.646-17.625 0-41.484-.861-71.576-2.582-29.663-1.722-52.877-2.797-69.643-3.228-16.765-.43-39.765.431-68.997 2.582-.86 0-1.505 0-1.935 0zm-1.289.646h-.645z"/><path d="m825.422 803.485c-27.943 4.734-64.054 5.164-108.332 1.291-58.466-4.734-93.072-7.101-103.819-7.101 0 0-.215 0-.645 0-.86.431-2.364.861-4.514 1.291-8.168 1.722-14.831.215-19.99-4.518-4.729-4.734-6.448-11.189-5.158-19.366.429-2.582.859-4.518 1.289-5.809 0-.43 0-.861 0-1.291 0-28.833-.645-71.867-1.934-129.102-1.29-57.235-1.935-100.054-1.935-128.456 0-3.873 1.29-7.1 3.869-9.682 2.58-2.583 5.804-3.874 9.673-3.874 1.289 0 2.579.216 3.869.646.86-7.746 1.719-15.492 2.579-23.238.43-3.443 2.15-6.24 5.159-8.392 3.009-2.582 6.448-3.658 10.317-3.227 2.58.43 4.944 1.721 7.093 3.873 8.168-2.152 24.289-3.658 48.363-4.519 23.214-.861 47.718-.861 73.512 0 28.802.861 52.231 2.582 70.287 5.164 10.747 1.721 19.345 3.443 25.793 5.164 3.869 1.291 7.093 2.797 9.673 4.519 4.299 2.582 7.308 5.809 9.027 9.682 1.72 3.443 2.58 8.607 2.58 15.493.43 5.594.43 12.695 0 21.301-.43 13.771-1.505 32.061-3.225 54.868-.429 11.189-1.289 23.669-2.579 37.44s-2.364 25.39-3.224 34.857c-.86 9.038-1.29 15.062-1.29 18.075v4.518 3.228 3.873 4.518c.43 13.771.645 25.175.645 34.212 0 15.062-.215 26.896-.645 35.503 0 5.164-.215 9.253-.645 12.265v5.164c-.859 3.012-2.149 5.594-3.869 7.746-1.289 1.721-3.009 3.228-5.158 4.519-.86 0-1.72 0-2.58 0-.859.43-1.289.645-1.289.645h-1.29-.645c-.43 0-.645 0-.645 0s-.215 0-.644 0c.429.861.859 1.721 1.289 2.582.43 3.873-.43 7.316-2.579 10.328-2.15 3.013-4.944 4.949-8.383 5.81zm-138.64-145.24c7.738-4.303 18.915-6.885 33.532-7.746 14.616-.86 23.644-1.721 27.083-2.582 3.869-1.291 7.308-.86 10.317 1.291 3.439 1.722 5.589 4.519 6.449 8.392 1.289 3.443.859 6.885-1.29 10.328-1.72 3.013-4.299 4.949-7.738 5.81-6.019 1.721-16.981 3.012-32.887 3.873-10.747.43-18.27 1.721-22.569 3.873-3.439 2.152-6.878 2.797-10.317 1.936-3.44-1.291-6.234-3.658-8.383-7.1-1.72-3.443-2.15-6.886-1.29-10.328 1.29-3.443 3.654-6.025 7.093-7.747zm148.313-158.794c-.86-.431-1.72-.861-2.58-1.292-4.729-1.291-11.607-2.582-20.635-3.873-17.625-2.582-40.194-4.303-67.707-5.164-25.364-.86-49.438-.86-72.222 0-21.924.431-35.896 1.507-41.914 3.228-1.72.43-3.225.645-4.514.645-1.72 17.644-2.795 36.364-3.224 56.16 6.018.43 14.616 1.291 25.793 2.582 11.607 1.291 18.7 2.151 21.28 2.582 19.775 2.151 36.325 3.227 49.652 3.227 3.869 0 7.093 1.291 9.673 3.873 2.579 2.582 3.869 5.81 3.869 9.683s-1.29 7.1-3.869 9.683c-2.58 2.582-5.804 3.873-9.673 3.873-14.186 0-31.597-1.076-52.232-3.228-3.439-.43-10.532-1.291-21.279-2.582-10.318-1.291-18.271-2.152-23.859-2.582 0 35.718 3.009 93.168 9.027 172.351v3.873h3.225c8.597.43 20.419.43 35.466 0h24.503c9.458-.431 17.411-.646 23.859-.646 6.449-.43 10.533-.645 12.252-.645 10.747 0 32.027 1.076 63.839 3.227l30.952 2.582c0-1.291 0-2.367 0-3.227.43-8.607.645-20.011.645-34.212 0-9.468-.215-21.087-.645-34.858 0-1.291 0-3.227 0-5.809s0-4.519 0-5.81c0-3.443 0-5.379 0-5.809 0-3.013.43-9.253 1.29-18.72.86-9.468 1.934-21.087 3.224-34.858 1.29-13.77 2.364-26.25 3.224-37.439 1.29-22.378 2.15-40.452 2.58-54.223.429-7.746.429-13.986 0-18.719 0-1.722 0-3.013 0-3.873z"/></g></svg>