<svg fill="none" height="1024" viewBox="0 0 1024 1024" width="1024" xmlns="http://www.w3.org/2000/svg"><g fill="#fff7e9"><path d="m217.496 707.258c-6.024-1.086-12.641-3.358-19.751-6.913-5.728-3.16-10.469-6.617-14.419-10.172-7.111-7.11-10.666-13.332-10.666-18.665 0-1.778 1.284-5.136 3.753-10.172.395-.395 1.975-3.16 4.839-8.592 2.864-5.333 4.938-9.481 6.419-12.246 32.393-61.23 48.293-92.24 47.503-92.931-1.086-1.087-6.419-.692-15.999 1.086-12.443 2.173-25.183 1.086-38.219-3.16-13.036-4.247-19.456-9.58-19.456-15.999 0-7.111 9.58-12.246 28.838-15.505 15.702-2.864 35.256-2.666 58.761.494l3.753.494 29.923-59.848c33.084-65.18 52.243-102.708 57.477-112.485 5.136-9.777 8.79-15.9 10.962-18.468 2.173-2.172 3.556-3.357 4.247-3.753.691-.395 2.173-.493 4.247-.493 3.16 0 5.53.395 6.913 1.086 5.728 1.778 11.554 5.53 17.677 11.258 6.025 5.728 11.061 11.95 14.913 18.666 2.469 4.246 4.148 8.493 5.036 12.542.889 4.148 1.877 12.345 2.963 24.887 2.469 23.504 7.506 68.242 14.913 134.113 4.937 41.281 8.592 71.6 10.665 90.857 2.864 25.678 5.136 45.232 6.913 58.761 1.383 12.148 2.173 19.752 2.173 23.011 0 3.16-.889 5.925-2.666 7.999-2.173 3.161-6.518 3.753-13.135 1.581-6.617-2.173-12.937-6.42-18.962-12.839-11.752-12.147-19.06-19.949-21.924-23.504-2.864-3.556-7.505-10.666-13.925-21.332-6.814-10.666-11.258-17.678-13.332-20.838-5.728-7.506-13.332-15.801-23.011-25.085-9.579-9.283-18.665-16.887-27.257-23.01l-5.333-3.753-6.419 12.246c-14.616 29.529-29.529 60.539-44.836 92.931-6.716 14.123-10.666 21.826-11.654 22.912-3.95 4.642-11.258 6.222-21.924 4.839zm161.371-133.125c-9.975-82.266-15.11-123.448-15.505-123.448l-21.332 42.762c-14.221 28.541-21.529 43.454-21.924 44.836 0 .395 1.777 1.581 5.333 3.753 16.69 8.888 32.392 20.344 47.008 34.17 4.247 3.951 6.617 5.926 6.913 5.926v-1.086c0-.692 0-1.679 0-2.963 0-1.185-.197-2.469-.493-3.95z"/><path d="m775.774 706.666c-5.037-1.778-10.469-5.728-16.592-11.752-5.036-4.642-11.357-8.197-19.257-10.666-24.887-7.506-56.49-10.666-94.611-9.58-37.034.692-69.426 5.926-97.276 15.505-10.666 3.161-17.085 6.222-19.258 9.086-3.555 3.95-6.913 6.123-10.172 6.716-3.259.592-7.111-.494-11.752-2.963-3.95-1.778-9.086-5.926-15.505-12.246-11.357-11.061-18.665-19.752-21.924-26.171-2.469-4.938-3.753-9.283-3.753-12.838 0-3.951.889-6.914 2.666-9.086 1.383-1.778 3.753-3.555 6.913-5.333 3.161-1.778 10.864-8.691 23.011-20.838 37.429-36.343 91.153-88.191 161.37-155.445 5.333-4.642 10.172-9.086 14.419-13.332 4.247-4.247 7.506-7.703 9.58-10.172l3.752-3.753c0-.395-4.246 0-12.838 1.086-23.11 2.469-44.836 2.469-64.884 0-20.147-2.469-35.355-6.913-45.725-13.332s-17.776-12.641-22.418-18.665c-6.419-7.802-10.468-15.802-12.246-23.999s-.494-13.727 3.753-16.591c2.469-2.173 7.802-2.173 15.999 0 20.344 5.037 44.342 6.024 72.093 3.16 33.479-3.16 72.883-11.554 118.114-25.084 9.975-3.16 17.974-5.728 23.998-7.506 6.025-1.777 15.505-4.839 28.344-9.086 15.999-4.937 25.776-7.505 29.43-7.505 4.938-.395 10.468 2.173 16.591 7.505 8.592 7.802 15.308 18.468 20.344 31.801 4.938 13.332 5.926 23.208 2.667 29.627-1.087 2.864-4.148 4.839-9.086 5.925-4.247.692-7.604 1.976-9.876 3.753-2.37 1.778-6.123 5.728-11.456 11.752-13.925 14.913-51.65 52.342-113.275 112.189-27.06 25.974-43.059 41.479-48.095 46.515-19.258 18.863-30.615 29.726-34.17 32.59-7.111 7.111-10.666 10.864-10.666 11.259s4.839.494 14.418.494c25.677 0 48.293 2.469 67.847 7.505 25.282 6.815 44.737 16.789 58.267 29.924 12.148 12.147 20.147 24.393 23.998 36.837 2.864 8.888 3.062 15.505.494 19.751-2.37 4.049-6.814 5.136-13.233 2.963z"/></g></svg>